<svg xmlns="http://www.w3.org/2000/svg" xmlns:xlink="http://www.w3.org/1999/xlink" x="0px" y="0px" width="80px" height="16px" viewBox="0 0 80 16">
<!-- workshops -->
<g transform="scale(0.5),translate(0,0)">
<path fill="#ffffff" d="M29.884 25.14l-9.884-16.47v-6.671h1c0.55 0 1-0.45 1-1s-0.45-1-1-1h-10c-0.55 0-1 0.45-1 1s0.45 1 1 1h1v6.671l-9.884 16.47c-2.264 3.773-0.516 6.86 3.884 6.86h20c4.4 0 6.148-3.087 3.884-6.86zM7.532 20l6.468-10.779v-7.221h4v7.221l6.468 10.779h-16.935z"></path>
</g>
<!-- login -->
<g  transform="scale(0.5) translate(25, 0)">
<path d="M31,0H17c-0.552,0-1,0.448-1,1s0.448,1,1,1h13v28H17c-0.552,0-1,0.448-1,1s0.448,1,1,1h14   c0.552,0,1-0.448,1-1V1C32,0.448,31.552,0,31,0z" fill="#ffffff"/>
<path d="M16.393,22.3c-0.391,0.395-0.391,1.034,0,1.428c0.391,0.395,1.024,0.395,1.414,0l6.899-6.999   c0.385-0.389,0.389-1.04,0-1.429l-6.9-6.999c-0.391-0.395-1.024-0.394-1.414,0c-0.391,0.394-0.391,1.034,0,1.428l5.2,5.275H1   c-0.552,0-1,0.452-1,1.01c0,0.558,0.448,1.01,1,1.01h20.593L16.393,22.3z" fill="#ffffff"/>

</g>
<!-- Home -->
<g  transform="translate(32, 0)">
<path fill="#ffffff" d="M3,16h10c0.6,0,1-0.4,1-1V7.5l0.3,0.3C14.5,7.9,14.8,8,15,8c0.3,0,0.6-0.1,0.8-0.3c0.4-0.4,0.3-1-0.1-1.4
	l-7-6c-0.4-0.3-0.9-0.3-1.3,0L4,3.1V2c0-0.6-0.4-1-1-1S2,1.4,2,2v2.8L0.3,6.2c-0.4,0.4-0.5,1-0.1,1.4c0.4,0.4,1,0.5,1.4,0.1L2,7.5
	V15C2,15.6,2.4,16,3,16z M4,5.7l4-3.4l4,3.5c0,0.1,0,0.1,0,0.2v8h-2v-3c0-0.6-0.4-1-1-1H7c-0.6,0-1,0.4-1,1v3H4V5.7z"/>
<rect data-color="color-2" x="6" y="6" fill="#ffffff" width="4" height="2"/>
</g>
<!-- events -->
<g  transform="translate(48, 0)">
<circle data-color="color-2" fill="#ffffff" cx="6" cy="8" r="2"/>
<path fill="#ffffff" d="M10,2H6C2.7,2,0,4.7,0,8s2.7,6,6,6h4c3.3,0,6-2.7,6-6S13.3,2,10,2z M10,12H6c-2.2,0-4-1.8-4-4s1.8-4,4-4h4
	c2.2,0,4,1.8,4,4S12.2,12,10,12z"/>
</g>
<!-- calendar -->
<g  transform="scale(0.03),translate(2200, 0)">
<g>
	<g>
		<path d="M498.791,161.127c-17.545-17.546-46.094-17.545-63.645,0.004c-5.398,5.403-39.863,39.896-45.128,45.166V87.426    c0-12.02-4.681-23.32-13.181-31.819L334.412,13.18C325.913,4.68,314.612,0,302.592,0H45.018c-24.813,0-45,20.187-45,45v422    c0,24.813,20.187,45,45,45h300c24.813,0,45-20.187,45-45V333.631L498.79,224.767C516.377,207.181,516.381,178.715,498.791,161.127    z M300.019,30c2.834,0,8.295-0.491,13.18,4.393l42.426,42.427c4.76,4.761,4.394,9.978,4.394,13.18h-60V30z M360.018,467    c0,8.271-6.728,15-15,15h-300c-8.271,0-15-6.729-15-15V45c0-8.271,6.729-15,15-15h225v75c0,8.284,6.716,15,15,15h75v116.323    c0,0-44.254,44.292-44.256,44.293l-21.203,21.204c-1.646,1.646-2.888,3.654-3.624,5.863l-21.214,63.64    c-1.797,5.39-0.394,11.333,3.624,15.35c4.023,4.023,9.968,5.419,15.35,3.624l63.64-21.213c2.209-0.736,4.217-1.977,5.863-3.624    l1.82-1.82V467z M326.378,312.427l21.213,21.213l-8.103,8.103l-31.819,10.606l10.606-31.82L326.378,312.427z M368.8,312.422    l-21.213-21.213c11.296-11.305,61.465-61.517,72.105-72.166l21.213,21.213L368.8,312.422z M477.573,203.558l-15.463,15.476    l-21.213-21.213l15.468-15.481c5.852-5.849,15.366-5.848,21.214,0C483.426,188.19,483.457,197.673,477.573,203.558z" fill="#FFFFFF"/>
	</g>
</g>
<g>
	<g>
		<path d="M285.018,150h-210c-8.284,0-15,6.716-15,15s6.716,15,15,15h210c8.284,0,15-6.716,15-15S293.302,150,285.018,150z" fill="#FFFFFF"/>
	</g>
</g>
<g>
	<g>
		<path d="M225.018,210h-150c-8.284,0-15,6.716-15,15s6.716,15,15,15h150c8.284,0,15-6.716,15-15S233.302,210,225.018,210z" fill="#FFFFFF"/>
	</g>
</g>
<g>
	<g>
		<path d="M225.018,270h-150c-8.284,0-15,6.716-15,15s6.716,15,15,15h150c8.284,0,15-6.716,15-15S233.302,270,225.018,270z" fill="#FFFFFF"/>
	</g>
</g>
<g>
	<g>
		<path d="M225.018,330h-150c-8.284,0-15,6.716-15,15s6.716,15,15,15h150c8.284,0,15-6.716,15-15S233.302,330,225.018,330z" fill="#FFFFFF"/>
	</g>
</g>
<g>
	<g>
		<path d="M285.018,422h-90c-8.284,0-15,6.716-15,15s6.716,15,15,15h90c8.284,0,15-6.716,15-15S293.302,422,285.018,422z" fill="#FFFFFF"/>
	</g>
</g></g></svg>