<svg xmlns="http://www.w3.org/2000/svg" xmlns:xlink="http://www.w3.org/1999/xlink" x="0px" y="0px" width="80px" height="16px" viewBox="0 0 80 16">
<!-- workshops -->
<g transform="scale(0.5),translate(0,0)">
<path fill="#ffffff" d="M29.884 25.14l-9.884-16.47v-6.671h1c0.55 0 1-0.45 1-1s-0.45-1-1-1h-10c-0.55 0-1 0.45-1 1s0.45 1 1 1h1v6.671l-9.884 16.47c-2.264 3.773-0.516 6.86 3.884 6.86h20c4.4 0 6.148-3.087 3.884-6.86zM7.532 20l6.468-10.779v-7.221h4v7.221l6.468 10.779h-16.935z"></path>
</g>
<!-- login -->
<g  transform="scale(0.5) translate(25, 0)">
<path d="M31,0H17c-0.552,0-1,0.448-1,1s0.448,1,1,1h13v28H17c-0.552,0-1,0.448-1,1s0.448,1,1,1h14   c0.552,0,1-0.448,1-1V1C32,0.448,31.552,0,31,0z" fill="#ffffff"/>
<path d="M16.393,22.3c-0.391,0.395-0.391,1.034,0,1.428c0.391,0.395,1.024,0.395,1.414,0l6.899-6.999   c0.385-0.389,0.389-1.04,0-1.429l-6.9-6.999c-0.391-0.395-1.024-0.394-1.414,0c-0.391,0.394-0.391,1.034,0,1.428l5.2,5.275H1   c-0.552,0-1,0.452-1,1.01c0,0.558,0.448,1.01,1,1.01h20.593L16.393,22.3z" fill="#ffffff"/>

</g>
<!-- Home -->
<g  transform="translate(32, 0)">
<path fill="#ffffff" d="M3,16h10c0.6,0,1-0.4,1-1V7.5l0.3,0.3C14.5,7.9,14.8,8,15,8c0.3,0,0.6-0.1,0.8-0.3c0.4-0.4,0.3-1-0.1-1.4
	l-7-6c-0.4-0.3-0.9-0.3-1.3,0L4,3.1V2c0-0.6-0.4-1-1-1S2,1.4,2,2v2.8L0.3,6.2c-0.4,0.4-0.5,1-0.1,1.4c0.4,0.4,1,0.5,1.4,0.1L2,7.5
	V15C2,15.6,2.4,16,3,16z M4,5.7l4-3.4l4,3.5c0,0.1,0,0.1,0,0.2v8h-2v-3c0-0.6-0.4-1-1-1H7c-0.6,0-1,0.4-1,1v3H4V5.7z"/>
<rect data-color="color-2" x="6" y="6" fill="#ffffff" width="4" height="2"/>
</g>
<!-- events -->
<g  transform="translate(48, 0)">
<circle data-color="color-2" fill="#ffffff" cx="6" cy="8" r="2"/>
<path fill="#ffffff" d="M10,2H6C2.7,2,0,4.7,0,8s2.7,6,6,6h4c3.3,0,6-2.7,6-6S13.3,2,10,2z M10,12H6c-2.2,0-4-1.8-4-4s1.8-4,4-4h4
	c2.2,0,4,1.8,4,4S12.2,12,10,12z"/>
</g>
<!-- calendar -->
<g  transform="translate(64, 0)">
<path fill="#ffffff" d="M5 6h2v2h-2zM8 6h2v2h-2zM11 6h2v2h-2zM2 12h2v2h-2zM5 12h2v2h-2zM8 12h2v2h-2zM5 9h2v2h-2zM8 9h2v2h-2zM11 9h2v2h-2zM2 9h2v2h-2zM13 0v1h-2v-1h-7v1h-2v-1h-2v16h15v-16h-2zM14 15h-13v-11h13v11z"></path>
</g></svg>